<svg width="938" height="264" fill="none" xmlns="http://www.w3.org/2000/svg"><path fill-rule="evenodd" clip-rule="evenodd" d="M904.5 162.66c0 .32-.22.58-.5.58-7.76 0-11.9 2-18.52 5.2l-1.6.77c-.92.44-1.97.17-3.02-.46a16.5 16.5 0 01-3.42-3c-2.42-2.63-5.12-6.43-7.76-10.4a450.66 450.66 0 01-5.14-8l-2.29-3.6a122.4 122.4 0 00-2.95-4.42 16.57 16.57 0 00-2.03-2.5c-12.97-11.56-31.09-2.15-34.19 14.12-.76 4-1.59 7.02-2.49 9.23-.9 2.2-1.88 3.66-3 4.48-2.27 1.68-4.8.58-7.36-1.03-.76-.47-1.54-1-2.34-1.55-1.97-1.33-4.04-2.75-6.32-3.68-3.16-1.29-6.64-1.61-10.51.65-1.18.69-2.85 2.33-4.72 4.47a132.74 132.74 0 00-5.71 7.16 377.2 377.2 0 00-4.79 6.55 208.67 208.67 0 01-1.9 2.6l-.16.17c-.02.02-.08.08-.17.12a.45.45 0 01-.36 0c-.24-.1-.3-.35-.32-.48-.62-5.77-3.4-12-7.3-16.54-3.92-4.55-8.9-7.34-13.89-6.44-8.08 1.45-12.75 7.13-16.63 13.97-1.25 2.18-2.4 4.46-3.56 6.75-.66 1.32-1.33 2.64-2.01 3.94-1.88 3.58-3.9 7.03-6.38 9.93-.3.36-.65.59-1.02.67-.38.08-.74 0-1.07-.15a5.74 5.74 0 01-1.76-1.6c-.27-.32-.54-.68-.8-1.02-.26-.35-.51-.68-.75-.97-.25-.3-.48-.56-.69-.75-.21-.2-.39-.3-.52-.35-1.88-.63-4.4-.77-6.95-.6-2.55.15-5.09.61-6.98 1.17-3.04.88-6.9 3.21-11.2 6.18-2.34 1.61-4.78 3.38-7.26 5.2-2.11 1.53-4.26 3.1-6.42 4.61-4.69 3.3-9.38 6.33-13.67 8.22-4.26 1.88-8.23 2.67-11.4 1.31a83.74 83.74 0 01-6.56-3.22l-1.05-.56a101.7 101.7 0 00-4.78-2.46 29.63 29.63 0 00-13.39-3.11c-2.54 0-3.97.63-4.92 1.42-.49.4-.86.84-1.2 1.3l-.44.62-.06.1-.51.7c-.36.47-.77.9-1.3 1.22-.54.31-1.18.48-1.97.47-1.57-.01-3.79-.73-7.2-2.5-5.12-2.65-9.71-6.89-14.25-11.29a575.8 575.8 0 01-1.59-1.55c-4.02-3.92-8.04-7.84-12.43-10.86-1.44-.99-3.98-3.15-7.2-5.88-1.11-.95-2.31-1.97-3.58-3.03a242.12 242.12 0 00-16.71-13.08c-5.91-4.13-11.79-7.51-16.65-8.8-2.42-.65-4.56-.76-6.3-.22a6.4 6.4 0 00-4 3.73c-2.75 6.07-2.56 12.75-2.36 19.58l.05 1.6c.2 7.31.12 14.72-4.18 21.17-6 8.98-10.21 20.08-10.21 31.77 0 2.97-.75 11.77-1.86 19.45a80.73 80.73 0 01-1.93 9.9 10.4 10.4 0 01-1.17 2.84c-.21.3-.48.58-.82.68-.38.11-.72-.03-1-.3-2.73-2.65-7.27-3.96-12.76-4.6-4.7-.56-10-.62-15.29-.68l-2.6-.04c-6.14-.08-12.13-.28-16.95-1.38-4.79-1.09-8.6-3.11-10.1-7.04a29.22 29.22 0 01-1.58-6.94l-.17-1.43c-.19-1.58-.35-2.98-.68-4.24a6.4 6.4 0 00-2.43-3.81c-1.35-.97-3.4-1.63-6.63-1.83-4.58-.28-7.68-1.23-9.78-2.84-2.13-1.63-3.18-3.89-3.74-6.62-.47-2.36-.6-5.11-.73-8.15l-.06-1.33a77.08 77.08 0 00-1.3-11.94 56.08 56.08 0 01-.6-4c-.24-1.62-.51-3.43-.88-5.07a14.14 14.14 0 00-1.36-3.97 2.17 2.17 0 00-.8-.84c-.24-.13-.51-.15-.86.01-8.31 3.77-16.87 6.4-25.45 9.06l-.55.17c-6.78 2.09-11.44 3.22-14.72 3.39-3.3.16-5.33-.64-6.72-2.54a12.18 12.18 0 01-1.63-3.42c-.44-1.34-.83-2.91-1.26-4.67l-.05-.22c-.86-3.5-1.92-7.82-3.93-12.97a28.47 28.47 0 00-6.9-10.24 97.44 97.44 0 00-3.86-3.57l-.49-.44a84.55 84.55 0 01-4.59-4.34 27.08 27.08 0 00-4.95-3.66c-.9-.56-1.9-1.15-2.9-1.75-1.24-.74-2.5-1.5-3.7-2.26a37.17 37.17 0 01-5.94-4.42c-1.6-1.55-2.8-3.27-2.98-5.18-.4-3.85-1.7-5.62-3.37-6.26-1.75-.67-4.06-.18-6.58 1-5.01 2.32-10.4 7.14-12.62 9.21-2.7 2.53-5.38 4.99-8.02 7.41-19.35 17.78-36.78 33.8-49.57 59.87l-.1.2c-1.17 2.39-5.24 10.7-9.18 16.05a22.19 22.19 0 01-3.02 3.44c-.96.84-1.95 1.42-2.88 1.4-1-.03-1.8-.73-2.35-2.03-.53-1.26-.86-3.16-.97-5.8-.34-7.9-2.84-16.34-6.06-24.54-2.51-6.4-5.46-12.63-8.15-18.3a824.5 824.5 0 01-2.18-4.62c-13.11-28.15-27.65-57.14-50.46-75.7a446.3 446.3 0 00-4.48-3.58c-3.57-2.84-6.17-4.9-8.5-7.4-3.24-3.45-5.99-7.74-10.22-16.06-.3-.62-.62-1.23-.94-1.86-4.31-8.51-8.92-17.6-14.61-23.88-3.04-3.36-6.37-5.88-10.1-7.07-3.72-1.19-7.87-1.07-12.6.94-1.64.7-3.4 2.1-5.19 3.98a58.24 58.24 0 00-5.28 6.58c-2.78 3.95-5.33 8.2-7.26 11.43l-1.21 2.03C63.5 88.25 45.83 106 27.96 123.95l-8.63 8.71c-.2.22-.52.2-.7-.05a.65.65 0 01.04-.82c2.88-2.94 5.77-5.84 8.65-8.73 17.88-17.96 35.44-35.6 49.14-58.23l1.2-2a183.3 183.3 0 017.32-11.53 59.33 59.33 0 015.38-6.7c1.83-1.92 3.7-3.45 5.52-4.22 4.9-2.08 9.27-2.22 13.2-.96 3.94 1.25 7.4 3.9 10.53 7.34 5.8 6.4 10.47 15.63 14.77 24.1l.96 1.9c4.2 8.28 6.9 12.46 10.02 15.8 2.28 2.43 4.8 4.43 8.34 7.24 1.35 1.07 2.85 2.26 4.54 3.64 23.03 18.73 37.66 47.97 50.77 76.1l2.17 4.59a296.97 296.97 0 018.2 18.4c3.23 8.24 5.79 16.84 6.14 24.97.1 2.57.43 4.29.87 5.34.43 1.03.94 1.36 1.47 1.37.59.02 1.35-.36 2.26-1.16.9-.79 1.87-1.92 2.86-3.27 3.88-5.27 7.91-13.5 9.08-15.89l.1-.18c12.88-26.28 30.48-42.45 49.81-60.2 2.64-2.44 5.32-4.9 8.01-7.4 2.22-2.07 7.71-7 12.88-9.4 2.57-1.2 5.17-1.82 7.26-1.02 2.17.83 3.63 3.11 4.05 7.23.14 1.45 1.08 2.92 2.63 4.42a36.29 36.29 0 005.77 4.3c1.22.77 2.45 1.5 3.66 2.23 1 .6 1.98 1.18 2.94 1.78a28 28 0 015.15 3.81 83.87 83.87 0 004.53 4.3l.49.42c1.33 1.2 2.65 2.37 3.9 3.61a29.64 29.64 0 017.16 10.65 98.6 98.6 0 013.97 13.12l.06.23c.44 1.77.81 3.28 1.24 4.57a11 11 0 001.45 3.08c1.1 1.52 2.77 2.3 5.92 2.13 3.16-.16 7.72-1.26 14.5-3.35l.53-.16c8.6-2.66 17.1-5.28 25.37-9.03a1.8 1.8 0 011.62 0c.49.25.89.7 1.21 1.25a15.27 15.27 0 011.52 4.35 68.45 68.45 0 011.05 6.28c.16 1.17.3 2.15.43 2.81.9 4.47 1.16 8.55 1.33 12.15l.06 1.34c.13 3.05.25 5.69.7 7.93.52 2.53 1.46 4.5 3.32 5.92 1.88 1.44 4.77 2.37 9.28 2.65 3.3.2 5.55.88 7.1 2a7.57 7.57 0 012.86 4.45c.36 1.36.54 2.9.73 4.5l.16 1.35c.26 2.11.63 4.34 1.51 6.64 1.28 3.36 4.63 5.29 9.37 6.37 4.72 1.07 10.62 1.27 16.76 1.36l2.6.03c5.3.06 10.65.13 15.4.69 5.5.65 10.3 1.97 13.28 4.86.1.1.13.07.13.07.03 0 .13-.06.29-.29a9.4 9.4 0 001-2.48c.68-2.37 1.33-5.9 1.88-9.72 1.12-7.65 1.85-16.38 1.85-19.25 0-12.01 4.33-23.36 10.42-32.48 4.06-6.09 4.16-13.1 3.97-20.43l-.05-1.65c-.2-6.76-.4-13.75 2.48-20.1a7.44 7.44 0 014.62-4.32c1.96-.6 4.28-.46 6.79.2 5.02 1.34 11 4.81 16.93 8.95 5.94 4.15 11.87 9 16.79 13.13l3.64 3.09a122.1 122.1 0 007.06 5.77c4.47 3.07 8.56 7.06 12.57 10.97l1.58 1.54c4.54 4.4 9.04 8.55 14 11.13 3.41 1.76 5.47 2.39 6.82 2.4.66 0 1.13-.14 1.5-.36.39-.22.7-.54 1.01-.94.16-.2.31-.42.48-.66.16-.23.33-.49.52-.74.37-.5.8-1.03 1.38-1.5 1.16-.96 2.81-1.64 5.5-1.64a30.5 30.5 0 0113.77 3.2c1.61.76 3.2 1.6 4.82 2.48l1.04.56c2 1.07 4.12 2.17 6.5 3.2 2.81 1.2 6.48.54 10.7-1.32 4.2-1.85 8.83-4.84 13.5-8.13 2.13-1.49 4.27-3.05 6.38-4.59a357.3 357.3 0 017.3-5.23c4.3-2.96 8.28-5.37 11.48-6.3a34.66 34.66 0 017.16-1.21c2.6-.17 5.25-.03 7.28.65.31.1.6.31.87.55.27.25.53.55.79.86.26.32.51.66.77 1 .27.35.52.7.78 1 .53.65 1 1.13 1.42 1.32.2.1.36.12.5.09.14-.04.31-.13.5-.35 2.4-2.8 4.37-6.17 6.23-9.71a285.7 285.7 0 001.99-3.88c1.17-2.32 2.35-4.65 3.6-6.86 3.96-6.95 8.83-12.95 17.32-14.47 5.42-.97 10.69 2.06 14.74 6.77a33.25 33.25 0 017.43 16.01c.34-.45.78-1.07 1.31-1.8v-.01c1.25-1.73 2.95-4.1 4.8-6.57 1.87-2.47 3.9-5.06 5.77-7.22 1.86-2.13 3.63-3.9 4.97-4.69 4.17-2.43 7.93-2.07 11.29-.7 2.38.97 4.59 2.48 6.58 3.83.78.53 1.52 1.04 2.22 1.48 2.6 1.63 4.62 2.35 6.36 1.07.9-.67 1.78-1.9 2.63-4 .85-2.1 1.66-5.02 2.41-8.98 3.26-17.05 22.2-26.9 35.78-14.8.58.52 1.34 1.47 2.2 2.69.87 1.22 1.87 2.76 2.97 4.47l2.3 3.61c1.62 2.56 3.36 5.3 5.12 7.96 2.64 3.97 5.3 7.7 7.65 10.27a15.57 15.57 0 003.2 2.81c.94.57 1.66.67 2.18.42l1.61-.78c6.62-3.2 10.92-5.27 18.89-5.27.28 0 .5.26.5.58z" fill="#fff"/><path d="M74.09 10.84h2.78c1.7 0 2.46-.99 2.46-2.29s-.79-2.05-1.51-2.1v-.08c.67-.2 1.22-.72 1.22-1.78 0-1.26-.74-2.23-2.29-2.23h-2.66v8.48zm1.1-1.1V7.02h1.62c.88 0 1.43.67 1.43 1.47 0 .71-.42 1.25-1.47 1.25h-1.59zm0-3.71V3.45h1.5c.86 0 1.28.53 1.28 1.24 0 .82-.58 1.34-1.32 1.34h-1.47zM82.13 10.84h4.6v-1.1h-3.5v-2.6h3.22v-1.1h-3.22V3.46h3.46v-1.1h-4.56v8.48zM89.1 10.84h.32c1.65 0 2.05-1.44 2.15-4.16l.1-3.24h2.5v7.4h1.07V2.36h-4.6l-.12 3.98c-.08 2.46-.33 3.35-1.2 3.38h-.22v1.12zM98.34 2.36v8.48h1.01l3.7-6.22h.07v6.22h1.1V2.36h-1.02l-3.7 6.22h-.07V2.36h-1.09zM111.62 10.84h1.34l-3-4.65 3.02-3.83h-1.36l-2.83 3.58h-.38V2.36h-1.1v8.48h1.1v-3.8h.75l2.46 3.8zM115.57 2.36v8.48h1.01l3.7-6.22h.06v6.22h1.1V2.36h-1.01l-3.7 6.22h-.07V2.36h-1.09zM124.54 2.36v8.48h1.01l3.7-6.22h.06v6.22h1.1V2.36h-1.01l-3.7 6.22h-.07V2.36h-1.09zm3.64-2.15c0 .42-.2.78-.7.78-.5 0-.7-.37-.7-.78h-.86c0 .93.6 1.57 1.56 1.57.96 0 1.57-.64 1.57-1.57h-.88zM69.54 24.82h1.1v-3.7h3.62v3.7h1.1v-8.48h-1.1v3.69h-3.62v-3.69h-1.1v8.48zM84.78 20.58c0-2.7-1.4-4.35-3.28-4.35-1.89 0-3.27 1.64-3.27 4.35 0 2.7 1.38 4.36 3.27 4.36 1.89 0 3.28-1.65 3.28-4.36zm-1.09 0c0 2.07-.94 3.19-2.19 3.19s-2.18-1.12-2.18-3.19c0-2.06.93-3.18 2.18-3.18s2.2 1.12 2.2 3.18zM87.65 24.82h2.78c1.7 0 2.46-.98 2.46-2.28 0-1.31-.8-2.05-1.51-2.1v-.08c.67-.2 1.22-.73 1.22-1.79 0-1.25-.74-2.23-2.3-2.23h-2.65v8.48zm1.1-1.1v-2.71h1.62c.88 0 1.43.66 1.43 1.47 0 .7-.42 1.24-1.47 1.24h-1.59zm0-3.7v-2.59h1.5c.86 0 1.28.54 1.28 1.24 0 .82-.58 1.34-1.32 1.34h-1.47zM100.22 16.34H95.7v8.48h1.1v-7.38h3.43v-1.1zM108.97 20.58c0-2.7-1.39-4.35-3.27-4.35-1.89 0-3.28 1.64-3.28 4.35 0 2.7 1.4 4.36 3.28 4.36s3.27-1.65 3.27-4.36zm-1.08 0c0 2.07-.94 3.19-2.19 3.19s-2.19-1.12-2.19-3.19c0-2.06.94-3.18 2.2-3.18 1.24 0 2.18 1.12 2.18 3.18zM111.84 24.82h1.1v-2.98h1.5c1.68 0 2.51-1.19 2.51-2.75s-.83-2.75-2.52-2.75h-2.59v8.48zm1.1-4.06v-3.32h1.38c1.09 0 1.53.69 1.53 1.65s-.44 1.67-1.52 1.67h-1.39zM126.06 20.58c0-2.7-1.4-4.35-3.28-4.35-1.89 0-3.28 1.64-3.28 4.35 0 2.7 1.4 4.36 3.28 4.36 1.89 0 3.28-1.65 3.28-4.36zm-1.09 0c0 2.07-.94 3.19-2.19 3.19s-2.19-1.12-2.19-3.19c0-2.06.94-3.18 2.2-3.18 1.24 0 2.18 1.12 2.18 3.18zM128.37 26.87h1.06v-2.05h4.88v2.04h1.05v-3.12h-.82v-7.4h-4.49l-.17 3.58c-.11 2.36-.54 3.34-1.03 3.82h-.48v3.13zm1.78-3.13c.41-.78.7-2.02.78-3.82l.11-2.48h2.44v6.3h-3.33zM5.88 145.7H.27v8.47h1.1v-7.38h3.42v7.38h1.1v-8.47zM15.1 148.45c-.25-1.81-1.47-2.87-3-2.87-1.89 0-3.28 1.64-3.28 4.35s1.39 4.36 3.27 4.36c1.6 0 2.77-1.17 3-2.85H14c-.19 1.08-.97 1.68-1.89 1.68-1.24 0-2.19-1.11-2.19-3.19 0-2.05.94-3.18 2.2-3.18.92 0 1.7.6 1.88 1.7h1.1zM22.22 154.17h1.34l-3-4.64 3.02-3.83h-1.36l-2.83 3.58H19v-3.58h-1.1v8.47h1.1v-3.8h.75l2.46 3.8zM32.13 149.93c0-2.7-1.4-4.35-3.28-4.35-1.89 0-3.28 1.64-3.28 4.35s1.4 4.36 3.28 4.36 3.28-1.65 3.28-4.36zm-1.09 0c0 2.07-.94 3.19-2.19 3.19s-2.19-1.12-2.19-3.19c0-2.06.94-3.18 2.2-3.18 1.24 0 2.18 1.12 2.18 3.18zM35 154.17h2.78c1.7 0 2.46-.98 2.46-2.28 0-1.31-.8-2.05-1.51-2.1v-.08c.66-.2 1.22-.73 1.22-1.79 0-1.25-.74-2.22-2.3-2.22H35v8.47zm1.1-1.1v-2.71h1.61c.89 0 1.44.66 1.44 1.47 0 .71-.42 1.24-1.47 1.24h-1.59zm0-3.7v-2.59h1.49c.87 0 1.29.54 1.29 1.24 0 .82-.58 1.34-1.32 1.34H36.1zM163.48 178.26h2.27v7.37h1.1v-7.37h2.26v-1.1h-5.63v1.1zM171.85 185.63h2.8c1.68 0 2.45-.98 2.45-2.28 0-1.3-.8-2.05-1.51-2.1v-.08c.66-.2 1.22-.73 1.22-1.78 0-1.26-.74-2.23-2.3-2.23h-2.66v8.47zm1.1-1.1v-2.7h1.62c.89 0 1.44.65 1.44 1.46 0 .71-.42 1.25-1.47 1.25h-1.59zm0-3.7v-2.58h1.5c.87 0 1.29.53 1.29 1.23 0 .82-.58 1.34-1.32 1.34h-1.47zM179.9 185.63h4.6v-1.1H181v-2.6h3.22v-1.09H181v-2.58h3.46v-1.1h-4.56v8.47zM187.42 185.63h1.1v-2.98h1.5c1.68 0 2.51-1.18 2.51-2.75 0-1.56-.82-2.74-2.52-2.74h-2.59v8.47zm1.1-4.06v-3.31h1.38c1.08 0 1.53.68 1.53 1.64 0 .96-.45 1.67-1.52 1.67h-1.39zM196.43 180.58v-3.42h-1.1v8.47h2.72c1.62 0 2.55-1.05 2.54-2.57 0-1.51-.92-2.48-2.54-2.48h-1.62zm0 1.07h1.62c.94 0 1.46.63 1.46 1.4 0 .78-.52 1.5-1.46 1.5h-1.62v-2.9zM261.65 211.27v-8.47h-2.6c-1.68 0-2.5 1.1-2.5 2.65 0 1.14.44 2 1.33 2.4l-1.62 3.42h1.25l1.48-3.2h1.57v3.2h1.1zm-1.1-4.3h-1.39c-1.07 0-1.51-.56-1.51-1.52s.44-1.56 1.53-1.56h1.37v3.07zM264.75 211.27h1.1v-2.98h1.48c1.7 0 2.53-1.19 2.53-2.75s-.83-2.74-2.52-2.74h-2.6v8.47zm1.1-4.06v-3.32h1.37c1.09 0 1.53.69 1.53 1.65s-.44 1.67-1.51 1.67h-1.4zM278.96 207.03c0-2.7-1.4-4.35-3.27-4.35-1.9 0-3.28 1.64-3.28 4.35s1.39 4.36 3.28 4.36c1.88 0 3.27-1.64 3.27-4.36zm-1.09 0c0 2.07-.93 3.2-2.18 3.2-1.26 0-2.2-1.13-2.2-3.2 0-2.06.94-3.18 2.2-3.18 1.25 0 2.18 1.12 2.18 3.18zM287.87 205.55c-.25-1.81-1.47-2.87-3-2.87-1.89 0-3.28 1.64-3.28 4.35 0 2.72 1.39 4.36 3.27 4.36 1.6 0 2.77-1.17 3-2.84h-1.1c-.19 1.07-.97 1.67-1.89 1.67-1.25 0-2.19-1.11-2.19-3.19 0-2.05.94-3.18 2.2-3.18.92 0 1.7.6 1.88 1.7h1.1zM290.13 211.27h.31c1.66 0 2.06-1.43 2.15-4.15l.12-3.24h2.48v7.4h1.08v-8.48h-4.6l-.12 3.98c-.08 2.45-.34 3.35-1.2 3.37l-.22.01v1.11zM299.98 211.27l.67-2.24h2.84l.67 2.24h1.16l-2.62-8.47h-1.26l-2.62 8.47h1.16zm.99-3.32l1.07-3.61h.06l1.07 3.61h-2.2zM307.87 211.27h2.79c1.69 0 2.45-.98 2.45-2.28 0-1.31-.79-2.05-1.5-2.1v-.08c.66-.2 1.22-.73 1.22-1.79 0-1.25-.75-2.22-2.3-2.22h-2.66v8.47zm1.1-1.1v-2.71h1.62c.88 0 1.43.66 1.43 1.47 0 .71-.41 1.25-1.47 1.25h-1.58zm0-3.7v-2.59h1.5c.87 0 1.28.54 1.28 1.24 0 .82-.57 1.34-1.31 1.34h-1.47zM315.36 211.27h.32c1.65 0 2.05-1.43 2.14-4.15l.12-3.24h2.48v7.4h1.08v-8.48h-4.6l-.12 3.98c-.08 2.45-.33 3.35-1.2 3.37l-.22.01v1.11zM325.7 206.22v-3.42h-1.1v8.47h2.73c1.62 0 2.55-1.05 2.55-2.57 0-1.51-.93-2.48-2.55-2.48h-1.62zm0 1.07h1.63c.94 0 1.46.63 1.46 1.4 0 .78-.52 1.5-1.46 1.5h-1.62v-2.9zM339.8 132.88v8.47h1.05v-6.14h.06l2.15 6.13h.87l2.14-6.12h.07v6.13h1.04v-8.47h-1.33l-2.32 6.58h-.08l-2.32-6.58h-1.33zM351.08 141.35l.66-2.24h2.84l.67 2.24h1.16l-2.61-8.47h-1.27l-2.62 8.47h1.17zm.98-3.32l1.08-3.61h.05l1.07 3.61h-2.2zM358.96 141.35h1.1v-3.7h3.63v3.7h1.1v-8.47h-1.1v3.68h-3.63v-3.68h-1.1v8.47zM367.53 133.98h2.26v7.37h1.1v-7.37h2.27v-1.1h-5.63v1.1zM376.41 141.47h.5c1.14 0 1.51-.74 1.83-1.59l2.52-7h-1.15l-1.7 4.9-1.9-4.9h-1.17l2.56 6.36-.1.3c-.16.44-.4.8-.95.8h-.44v1.13zM383.8 141.35h1.1v-2.98h1.49c1.68 0 2.52-1.19 2.52-2.75s-.83-2.74-2.52-2.74h-2.6v8.47zm1.1-4.06v-3.32h1.37c1.09 0 1.53.69 1.53 1.65s-.44 1.67-1.51 1.67h-1.4zM398.01 137.11c0-2.7-1.4-4.35-3.27-4.35-1.9 0-3.28 1.64-3.28 4.35s1.39 4.36 3.28 4.36c1.88 0 3.27-1.65 3.27-4.36zm-1.09 0c0 2.07-.93 3.19-2.18 3.19-1.26 0-2.2-1.12-2.2-3.19 0-2.06.94-3.18 2.2-3.18 1.25 0 2.18 1.12 2.18 3.18zM400.88 141.35h2.79c1.69 0 2.45-.98 2.45-2.28 0-1.31-.79-2.05-1.51-2.1v-.08c.67-.2 1.22-.73 1.22-1.79 0-1.25-.74-2.22-2.29-2.22h-2.66v8.47zm1.1-1.1v-2.71h1.62c.88 0 1.43.66 1.43 1.47 0 .71-.42 1.25-1.47 1.25h-1.58zm0-3.7v-2.59h1.5c.86 0 1.28.54 1.28 1.24 0 .82-.58 1.34-1.31 1.34h-1.47zM415.24 137.11c0-2.7-1.4-4.35-3.28-4.35s-3.27 1.64-3.27 4.35 1.38 4.36 3.27 4.36c1.89 0 3.28-1.65 3.28-4.36zm-1.09 0c0 2.07-.94 3.19-2.19 3.19s-2.18-1.12-2.18-3.19c0-2.06.93-3.18 2.18-3.18s2.2 1.12 2.2 3.18zM396.62 173.99h1.34l-3-4.65 3.02-3.83h-1.36l-2.83 3.58h-.38v-3.58h-1.1v8.48h1.1v-3.8h.75l2.46 3.8zM406.53 169.75c0-2.71-1.4-4.36-3.28-4.36-1.89 0-3.28 1.65-3.28 4.36 0 2.7 1.4 4.35 3.28 4.35s3.28-1.64 3.28-4.35zm-1.1 0c0 2.06-.93 3.18-2.18 3.18s-2.19-1.12-2.19-3.18c0-2.07.94-3.19 2.2-3.19 1.24 0 2.18 1.12 2.18 3.19zM408.73 166.61H411v7.38h1.1v-7.38h2.26v-1.1h-5.63v1.1zM417.1 173.99h4.6v-1.1h-3.5v-2.6h3.23v-1.1h-3.23v-2.58h3.47v-1.1h-4.56v8.48zM424.08 173.99h.31c1.66 0 2.06-1.44 2.15-4.16l.11-3.24h2.49v7.4h1.08v-8.48h-4.6l-.12 3.98c-.08 2.45-.34 3.35-1.2 3.38h-.22V174zM434.43 168.93v-3.42h-1.1v8.48h2.72c1.62 0 2.55-1.06 2.54-2.58 0-1.51-.92-2.48-2.54-2.48h-1.62zm0 1.07h1.62c.94 0 1.46.63 1.46 1.4 0 .78-.52 1.5-1.46 1.5h-1.62V170zM441.43 173.99h1.1v-3.7h3.62v3.7h1.1v-8.48h-1.1v3.68h-3.62v-3.68h-1.1v8.48zM450.35 165.5V174h1.01l3.7-6.22h.06v6.22h1.1v-8.48h-1.02l-3.7 6.22h-.06v-6.22h-1.09zM459.47 165.5v2.8c0 1.9.98 2.64 2.57 2.64.7 0 1.3-.1 1.82-.27v3.32h1.09v-8.48h-1.09v4.06c-.54.17-1.21.28-1.82.28-.95 0-1.49-.38-1.49-1.54v-2.8h-1.08zM471.26 169.21h-3.22v1.07h3.22v-1.07zM476.72 165.5h-1.02c-.04.24-.6 1.31-1.65 1.31v1.05c.82 0 1.4-.38 1.51-.63h.06V174h1.1v-8.48zM528.34 210.96h-4.54v8.47h1.1v-7.37h3.44v-1.1zM530.52 219.43h.31c1.66 0 2.06-1.43 2.15-4.16l.12-3.23h2.48v7.39h1.08v-8.47h-4.6l-.12 3.98c-.08 2.45-.34 3.35-1.2 3.37l-.22.01v1.11zM540.37 219.43l.67-2.24h2.84l.67 2.24h1.16l-2.62-8.47h-1.26l-2.62 8.47h1.16zm1-3.32l1.06-3.62h.06l1.07 3.62h-2.2zM550.7 219.55c1.48 0 2.57-1.04 2.56-2.45 0-1.07-.55-1.84-1.51-2.01v-.07c.75-.23 1.25-.92 1.25-1.87 0-1.25-.88-2.31-2.28-2.31-1.33 0-2.4.94-2.44 2.32h1.06c.03-.78.65-1.25 1.37-1.25.74 0 1.23.52 1.22 1.3 0 .82-.56 1.36-1.36 1.36h-.62v1.05h.62c1 0 1.59.6 1.59 1.44 0 .83-.62 1.38-1.47 1.38-.8 0-1.4-.47-1.45-1.22h-1.11c.04 1.38 1.1 2.33 2.56 2.33zM562.52 215.2c0-2.72-1.39-4.36-3.27-4.36-1.89 0-3.28 1.64-3.28 4.35 0 2.7 1.4 4.36 3.28 4.36s3.27-1.65 3.27-4.36zm-1.08 0c0 2.06-.94 3.18-2.19 3.18s-2.19-1.12-2.19-3.19c0-2.06.94-3.18 2.19-3.18s2.19 1.12 2.19 3.18zM565.4 219.43h2.78c1.7 0 2.45-.98 2.45-2.28 0-1.31-.78-2.05-1.5-2.1v-.08c.66-.2 1.22-.73 1.22-1.79 0-1.25-.75-2.22-2.3-2.22h-2.66v8.47zm1.09-1.1v-2.71h1.62c.88 0 1.43.66 1.43 1.47 0 .71-.41 1.24-1.47 1.24h-1.58zm0-3.7v-2.59h1.5c.87 0 1.28.54 1.28 1.24 0 .82-.57 1.34-1.31 1.34h-1.47zM531.57 135.82h-5.61v8.47h1.09v-7.38h3.42v7.38h1.1v-8.47zM534.75 144.3h4.6v-1.1h-3.5v-2.6h3.22v-1.1h-3.23v-2.58h3.46v-1.1h-4.55v8.47zM542.27 144.3h1.1v-2.99h1.49c1.69 0 2.52-1.19 2.52-2.75s-.83-2.74-2.52-2.74h-2.59v8.47zm1.1-4.07v-3.32h1.38c1.08 0 1.53.7 1.53 1.65 0 .96-.45 1.67-1.52 1.67h-1.4zM550.17 135.82v8.47h1.04v-6.13h.07l2.14 6.12h.87l2.14-6.12h.07v6.13h1.05v-8.47h-1.34l-2.31 6.59h-.09l-2.31-6.6h-1.33zM561.93 139.24v-3.42h-1.1v8.47h2.73c1.62 0 2.54-1.05 2.54-2.57 0-1.51-.92-2.48-2.54-2.48h-1.63zm0 1.07h1.63c.94 0 1.46.63 1.46 1.4 0 .78-.52 1.5-1.46 1.5h-1.63v-2.9zM598.44 180.6h2.27v7.37h1.1v-7.38h2.26v-1.1h-5.63v1.1zM607.91 179.5h-1.1v8.47h1.1v-3.6h1.28c.2 2.32 1.5 3.71 3.24 3.71 1.89 0 3.28-1.64 3.28-4.35s-1.4-4.35-3.28-4.35c-1.78 0-3.12 1.46-3.26 3.91h-1.26v-3.8zm6.71 4.23c0 2.06-.94 3.19-2.19 3.19s-2.18-1.13-2.18-3.2c0-2.06.93-3.18 2.18-3.18s2.2 1.12 2.2 3.19zM618.4 179.5v8.47h1.04v-6.14h.06l2.15 6.12h.87l2.14-6.12h.07v6.14h1.04v-8.48h-1.33l-2.32 6.59h-.08l-2.32-6.59h-1.33zM629.05 187.97h4.6v-1.1h-3.5v-2.6h3.22v-1.1h-3.22v-2.58h3.46v-1.1h-4.56v8.48zM636.58 187.97h1.1v-3.7h3.62v3.7h1.1v-8.48h-1.1v3.68h-3.63v-3.68h-1.1v8.48zM646.6 182.9v-3.4h-1.1v8.47h2.73c1.62 0 2.55-1.06 2.54-2.57 0-1.52-.92-2.5-2.54-2.5h-1.62zm0 1.09h1.63c.94 0 1.46.62 1.46 1.39 0 .79-.52 1.51-1.46 1.51h-1.62v-2.9zM697.46 209.36c0-2.7-1.4-4.35-3.28-4.35-1.89 0-3.28 1.64-3.28 4.35s1.4 4.36 3.28 4.36 3.28-1.65 3.28-4.36zm-1.1 0c0 2.07-.93 3.2-2.18 3.2s-2.19-1.13-2.19-3.2c0-2.06.94-3.18 2.2-3.18 1.24 0 2.18 1.12 2.18 3.18zM700.32 205.13v8.47h1.05v-6.13h.07l2.14 6.12h.87l2.14-6.12h.07v6.13h1.04v-8.47h-1.33l-2.31 6.59h-.09l-2.31-6.6h-1.34zM717.02 207.88c-.24-1.81-1.46-2.87-3-2.87-1.88 0-3.27 1.64-3.27 4.35s1.38 4.36 3.27 4.36c1.6 0 2.77-1.17 3-2.84h-1.1c-.2 1.08-.97 1.67-1.9 1.67-1.24 0-2.18-1.11-2.18-3.19 0-2.05.94-3.18 2.2-3.18.92 0 1.7.6 1.88 1.7h1.1zM724.14 213.6h1.34l-3-4.64 3.02-3.83h-1.36l-2.83 3.58h-.38v-3.58h-1.1v8.47h1.1v-3.8h.76l2.45 3.8zM805.38 121.54h1.34l-3-4.64 3.02-3.83h-1.36l-2.83 3.58h-.38v-3.58h-1.1v8.47h1.1v-3.8h.75l2.46 3.8zM809.33 121.54h1.1v-2.98h1.49c1.69 0 2.52-1.19 2.52-2.75s-.83-2.74-2.52-2.74h-2.59v8.47zm1.1-4.06v-3.32h1.38c1.08 0 1.53.69 1.53 1.65s-.45 1.67-1.52 1.67h-1.4zM817.07 121.54l.67-2.24h2.84l.66 2.24h1.17l-2.62-8.47h-1.27l-2.61 8.47h1.16zm.99-3.32l1.07-3.61h.06l1.07 3.61h-2.2zM830.66 115.82c-.25-1.81-1.47-2.87-3-2.87-1.89 0-3.28 1.64-3.28 4.35s1.38 4.36 3.27 4.36c1.6 0 2.77-1.17 3-2.85h-1.1c-.19 1.08-.97 1.68-1.89 1.68-1.25 0-2.19-1.11-2.19-3.19 0-2.05.94-3.18 2.2-3.18.92 0 1.7.6 1.88 1.7h1.1zM833.47 121.54h1.1v-3.7h3.62v3.7h1.1v-8.47h-1.1v3.68h-3.62v-3.68h-1.1v8.47zM848.7 117.3c0-2.7-1.38-4.35-3.27-4.35-1.88 0-3.27 1.64-3.27 4.35s1.39 4.36 3.27 4.36c1.89 0 3.28-1.65 3.28-4.36zm-1.08 0c0 2.07-.94 3.19-2.19 3.19s-2.18-1.12-2.18-3.19c0-2.06.93-3.18 2.18-3.18s2.2 1.12 2.2 3.18zM856.43 121.54v-8.47h-2.6c-1.68 0-2.51 1.1-2.51 2.65 0 1.14.44 2 1.33 2.4l-1.6 3.42h1.24l1.48-3.2h1.57v3.2h1.09zm-1.1-4.3h-1.4c-1.06 0-1.5-.56-1.5-1.52s.44-1.56 1.52-1.56h1.38v3.07zM859.52 121.54h1.1v-2.98h1.5c1.68 0 2.51-1.19 2.51-2.75s-.83-2.74-2.51-2.74h-2.6v8.47zm1.1-4.06v-3.32H862c1.08 0 1.53.69 1.53 1.65s-.45 1.67-1.52 1.67h-1.39zM873.46 115.82c-.25-1.81-1.47-2.87-3-2.87-1.89 0-3.28 1.64-3.28 4.35s1.39 4.36 3.28 4.36c1.6 0 2.76-1.17 3-2.85h-1.1c-.2 1.08-.98 1.68-1.9 1.68-1.24 0-2.19-1.11-2.19-3.19 0-2.05.94-3.18 2.2-3.18.92 0 1.7.6 1.88 1.7h1.1zM880.58 121.54h1.34l-3-4.64 3.02-3.83h-1.36l-2.83 3.58h-.38v-3.58h-1.1v8.47h1.1v-3.8h.75l2.46 3.8zM875.9 188.08h.5c1.13 0 1.5-.74 1.82-1.58l2.52-7h-1.15l-1.7 4.9-1.9-4.9h-1.17l2.56 6.35-.1.3c-.16.45-.4.8-.95.8h-.44v1.13zM882.73 187.97h.3c1.66 0 2.06-1.44 2.16-4.16l.11-3.24h2.48v7.4h1.09v-8.48h-4.6l-.13 3.98c-.07 2.46-.33 3.35-1.2 3.38h-.21v1.12zM892.58 187.97l.67-2.25h2.84l.66 2.25h1.17l-2.62-8.48h-1.27l-2.62 8.48h1.17zm.99-3.32l1.07-3.62h.06l1.07 3.62h-2.2zM900.47 187.97h1.1v-3.7h3.62v3.7h1.1v-8.48h-1.1v3.68h-3.63v-3.68h-1.1v8.48zM912.52 183.2h-3.23v1.07h3.23v-1.08zM915.4 188.08h.5c1.13 0 1.5-.74 1.83-1.58l2.51-7h-1.15l-1.7 4.9-1.9-4.9h-1.17l2.56 6.35-.1.3c-.16.45-.4.8-.95.8h-.43v1.13zM922.23 190.01h1.05v-2.04h4.88V190h1.05v-3.12h-.82v-7.39h-4.49l-.17 3.58c-.1 2.36-.54 3.33-1.02 3.81h-.48v3.13zm1.77-3.13c.41-.77.7-2.02.78-3.8l.12-2.49h2.44v6.3H924zM931.68 185.28c.14 1.6 1.05 2.8 2.8 2.8 1.75 0 2.88-1.53 2.88-3.9v-.88c0-2.38-1.14-3.93-2.94-3.93-1.71 0-2.6 1.22-2.74 2.86h1.12c.11-1.1.56-1.75 1.62-1.75 1.17 0 1.82 1.1 1.82 2.81h-2.68v1.08h2.68c-.05 1.5-.6 2.63-1.76 2.63-1.1 0-1.56-.6-1.68-1.72h-1.12z" fill="#fff"/><path d="M106.75 39.2c0 2.24-1.57 4.06-3.5 4.06s-3.49-1.82-3.49-4.07c0-2.24 1.56-4.07 3.5-4.07 1.92 0 3.49 1.83 3.49 4.07z" fill="#272722"/><path fill-rule="evenodd" clip-rule="evenodd" d="M103.25 42.1c1.38 0 2.5-1.3 2.5-2.9 0-1.61-1.12-2.91-2.5-2.91-1.37 0-2.49 1.3-2.49 2.9 0 1.6 1.12 2.9 2.5 2.9zm0 1.16c1.93 0 3.5-1.82 3.5-4.07 0-2.24-1.57-4.07-3.5-4.07s-3.49 1.83-3.49 4.07c0 2.25 1.56 4.07 3.5 4.07z" fill="#fff"/><path d="M20.98 133.77c0 2.25-1.56 4.07-3.49 4.07-1.93 0-3.5-1.82-3.5-4.07s1.57-4.07 3.5-4.07 3.5 1.82 3.5 4.07z" fill="#131313"/><path fill-rule="evenodd" clip-rule="evenodd" d="M17.5 136.68c1.37 0 2.48-1.3 2.48-2.91 0-1.6-1.11-2.9-2.49-2.9-1.37 0-2.5 1.3-2.5 2.9 0 1.6 1.13 2.9 2.5 2.9zm0 1.16c1.92 0 3.48-1.82 3.48-4.07s-1.56-4.07-3.49-4.07c-1.93 0-3.5 1.82-3.5 4.07s1.57 4.07 3.5 4.07z" fill="#fff"/><path d="M215.02 181.66c0 2.25-1.56 4.07-3.49 4.07-1.93 0-3.5-1.82-3.5-4.07s1.57-4.07 3.5-4.07 3.5 1.82 3.5 4.07z" fill="#4D5648"/><path fill-rule="evenodd" clip-rule="evenodd" d="M211.53 184.56c1.38 0 2.5-1.3 2.5-2.9 0-1.6-1.12-2.9-2.5-2.9s-2.5 1.3-2.5 2.9c0 1.6 1.12 2.9 2.5 2.9zm0 1.17c1.93 0 3.5-1.82 3.5-4.07s-1.57-4.07-3.5-4.07-3.5 1.82-3.5 4.07 1.57 4.07 3.5 4.07z" fill="#fff"/><path d="M247.33 207.1c0 2.25-1.56 4.07-3.49 4.07-1.93 0-3.5-1.82-3.5-4.07s1.57-4.07 3.5-4.07 3.5 1.82 3.5 4.07z" fill="#47443E"/><path fill-rule="evenodd" clip-rule="evenodd" d="M243.84 210c1.38 0 2.5-1.3 2.5-2.9 0-1.6-1.12-2.9-2.5-2.9s-2.5 1.3-2.5 2.9c0 1.6 1.13 2.9 2.5 2.9zm0 1.17c1.93 0 3.5-1.82 3.5-4.07s-1.57-4.07-3.5-4.07-3.5 1.82-3.5 4.07 1.57 4.07 3.5 4.07z" fill="#fff"/><path d="M335.53 148.08c0 2.25-1.56 4.07-3.5 4.07-1.92 0-3.49-1.82-3.49-4.07s1.57-4.07 3.5-4.07 3.49 1.82 3.49 4.07z" fill="#93A47C"/><path fill-rule="evenodd" clip-rule="evenodd" d="M332.04 150.99c1.37 0 2.49-1.3 2.49-2.91 0-1.6-1.12-2.9-2.5-2.9-1.37 0-2.49 1.3-2.49 2.9 0 1.6 1.12 2.9 2.5 2.9zm0 1.16c1.93 0 3.49-1.82 3.49-4.07s-1.56-4.07-3.5-4.07c-1.92 0-3.49 1.82-3.49 4.07s1.57 4.07 3.5 4.07z" fill="#fff"/><path d="M413.25 187.77c0 2.24-1.56 4.07-3.5 4.07-1.92 0-3.49-1.83-3.49-4.07 0-2.25 1.57-4.07 3.5-4.07s3.49 1.82 3.49 4.07z" fill="#738F8C"/><path fill-rule="evenodd" clip-rule="evenodd" d="M409.76 190.67c1.37 0 2.49-1.3 2.49-2.9 0-1.6-1.12-2.9-2.5-2.9-1.37 0-2.49 1.3-2.49 2.9 0 1.6 1.12 2.9 2.5 2.9zm0 1.17c1.93 0 3.49-1.83 3.49-4.07 0-2.25-1.56-4.07-3.5-4.07-1.92 0-3.49 1.82-3.49 4.07 0 2.24 1.57 4.07 3.5 4.07z" fill="#fff"/><path d="M515.41 215.24c0 2.25-1.56 4.07-3.49 4.07-1.93 0-3.5-1.82-3.5-4.07 0-2.24 1.57-4.07 3.5-4.07s3.5 1.83 3.5 4.07z" fill="#789186"/><path fill-rule="evenodd" clip-rule="evenodd" d="M511.92 218.15c1.38 0 2.5-1.3 2.5-2.9 0-1.61-1.12-2.91-2.5-2.91s-2.5 1.3-2.5 2.9c0 1.6 1.13 2.9 2.5 2.9zm0 1.16c1.93 0 3.5-1.82 3.5-4.07 0-2.24-1.57-4.07-3.5-4.07s-3.5 1.83-3.5 4.07c0 2.25 1.57 4.07 3.5 4.07z" fill="#fff"/><path d="M548.6 155.2c0 2.25-1.57 4.08-3.5 4.08s-3.49-1.83-3.49-4.07c0-2.25 1.56-4.08 3.5-4.08 1.92 0 3.49 1.83 3.49 4.08z" fill="#8CBABB"/><path fill-rule="evenodd" clip-rule="evenodd" d="M545.1 158.11c1.38 0 2.5-1.3 2.5-2.9 0-1.6-1.12-2.9-2.5-2.9-1.37 0-2.49 1.3-2.49 2.9 0 1.6 1.12 2.9 2.5 2.9zm0 1.17c1.93 0 3.5-1.83 3.5-4.07 0-2.25-1.57-4.08-3.5-4.08s-3.49 1.83-3.49 4.08c0 2.24 1.56 4.07 3.5 4.07z" fill="#fff"/><path d="M605.36 201c0 2.25-1.57 4.07-3.5 4.07s-3.5-1.82-3.5-4.07 1.57-4.07 3.5-4.07 3.5 1.82 3.5 4.07z" fill="#414847"/><path fill-rule="evenodd" clip-rule="evenodd" d="M601.86 203.9c1.38 0 2.5-1.3 2.5-2.9 0-1.6-1.12-2.9-2.5-2.9s-2.5 1.3-2.5 2.9c0 1.6 1.13 2.9 2.5 2.9zm0 1.17c1.93 0 3.5-1.82 3.5-4.07s-1.57-4.07-3.5-4.07-3.5 1.82-3.5 4.07 1.57 4.07 3.5 4.07z" fill="#fff"/><path d="M711.02 185.73c0 2.25-1.56 4.07-3.5 4.07-1.92 0-3.49-1.82-3.49-4.07s1.57-4.07 3.5-4.07 3.49 1.82 3.49 4.07z" fill="#577379"/><path fill-rule="evenodd" clip-rule="evenodd" d="M707.53 188.64c1.37 0 2.49-1.3 2.49-2.9 0-1.61-1.12-2.91-2.5-2.91-1.37 0-2.49 1.3-2.49 2.9 0 1.6 1.12 2.9 2.5 2.9zm0 1.16c1.93 0 3.49-1.82 3.49-4.07s-1.56-4.07-3.5-4.07c-1.92 0-3.49 1.82-3.49 4.07s1.57 4.07 3.5 4.07z" fill="#fff"/><path d="M845.95 130.78c0 2.25-1.56 4.07-3.5 4.07-1.92 0-3.49-1.82-3.49-4.07s1.57-4.07 3.5-4.07 3.49 1.82 3.49 4.07z" fill="#3E403A"/><path fill-rule="evenodd" clip-rule="evenodd" d="M842.46 133.69c1.37 0 2.49-1.3 2.49-2.91 0-1.6-1.12-2.9-2.5-2.9-1.37 0-2.49 1.3-2.49 2.9 0 1.6 1.12 2.9 2.5 2.9zm0 1.16c1.93 0 3.49-1.82 3.49-4.07s-1.56-4.07-3.5-4.07c-1.92 0-3.49 1.82-3.49 4.07s1.57 4.07 3.5 4.07z" fill="#fff"/><path d="M908.99 162.9c0 2.25-1.57 4.07-3.5 4.07-1.92 0-3.49-1.82-3.49-4.07s1.57-4.07 3.5-4.07c1.92 0 3.49 1.82 3.49 4.07z" fill="#181A19"/><path fill-rule="evenodd" clip-rule="evenodd" d="M905.5 165.8c1.37 0 2.49-1.3 2.49-2.9 0-1.6-1.12-2.9-2.5-2.9-1.37 0-2.49 1.3-2.49 2.9 0 1.6 1.12 2.9 2.5 2.9zm0 1.17c1.92 0 3.49-1.82 3.49-4.07s-1.57-4.07-3.5-4.07c-1.92 0-3.49 1.82-3.49 4.07s1.57 4.07 3.5 4.07z" fill="#fff"/></svg>